<?xml version="1.0" encoding="UTF-8"?><svg id="Layer_1" xmlns="http://www.w3.org/2000/svg" viewBox="0 0 906.4 686.05"><defs><style>.cls-1{fill:#764bff;}</style></defs><g><path class="cls-1" d="m906.08,235.86c-.14-25.17-.18-50.4.29-75.46.15-8.16-2.67-10.11-10.45-10.05-70.44.51-137.62,15.84-202.24,43.35-101.15,43.06-180.4,112.98-240.47,203.16-60.07-90.18-139.32-160.1-240.47-203.16-64.62-27.51-131.8-42.84-202.24-43.35-7.78-.06-10.61,1.89-10.45,10.05.9,48.28-.07,96.6-.03,144.88q.01,15.24,14.88,16.06c102.13,5.53,188.06,45.76,256.6,121.54,59.19,65.44,89.42,143.13,93.26,231.06.39,9,2.77,12.13,12.18,12.05.99,0,1.98-.01,2.97-.02.8.05,1.64.08,2.56.07,23.58-.22,47.16-.33,70.75-.35,23.58.02,47.17.13,70.75.35.92,0,1.76-.02,2.56-.07.99,0,1.98.01,2.97.02,9.4.08,11.78-3.05,12.18-12.05,3.84-87.93,34.07-165.63,93.26-231.06,68.54-75.78,154.47-116.01,256.6-121.54q14.85-.8,14.88-16.06c.02-22.97-.19-46.17-.32-69.42Z"/><circle class="cls-1" cx="453.2" cy="106.4" r="106.4"/></g><g><path class="cls-1" d="m870.66,136.55h-3.78v-12.65h-5.49v-3.13h14.84v3.13h-5.56v12.65Z"/><path class="cls-1" d="m888.21,136.55h-3.26l-3.23-11.65h-.1v11.65h-3.51v-15.79h5.91l2.78,10.55h.08l2.66-10.55h5.79v15.79h-3.81v-11.65h-.1l-3.21,11.65Z"/></g></svg>