<svg viewBox="0 340 1062 446" xmlns="http://www.w3.org/2000/svg">
    <g>
        <path class="main-letters" fill="#E49219"
              d="M199.529 345.299C199.39 345.368 196.817 345.716 193.896 345.925C190.975 346.203 187.984 346.481 187.289 346.62C185.55 346.968 179.43 347.872 177.552 348.081C176.718 348.22 175.188 348.498 174.075 348.706C173.032 348.985 171.502 349.263 170.737 349.402C156.341 352.114 136.172 359.278 120.663 367.067C110.162 372.352 110.231 372.283 102.72 377.081C100.495 378.542 98.5475 379.724 98.3388 379.724C98.1998 379.724 95.4874 381.532 92.3578 383.827C78.4485 393.703 67.947 403.092 54.8722 417.418C52.0904 420.339 44.5098 430.006 41.867 433.762C30.6005 450.175 22.8113 464.432 16.6912 479.871C15.1611 483.905 13.5616 487.8 13.2138 488.565C12.8661 489.33 12.0315 491.694 11.4056 493.781C10.7797 495.867 9.94515 498.51 9.52787 499.692C9.11059 500.805 8.69331 502.057 8.55422 502.474C8.27603 503.865 7.71966 506.09 6.32873 511.863C5.56372 515.131 4.72916 518.539 4.59006 519.513C4.38142 520.487 4.24233 521.252 4.17278 521.252C4.10324 521.252 3.96415 522.017 3.75551 522.99C3.61641 523.964 3.33823 525.494 3.19913 526.468C3.06004 527.441 2.71231 529.736 2.43412 531.684C2.15593 533.561 1.87775 535.926 1.73865 536.899C-0.208649 550.6 -0.139103 585.443 1.73865 594.623C1.94729 595.597 2.22548 597.961 2.36457 599.978C2.50367 601.926 2.8514 603.873 3.06004 604.221C3.26868 604.638 3.61641 606.098 3.75551 607.559C4.17278 610.758 5.70281 617.713 7.23283 623.485C7.85875 625.78 8.55422 628.284 8.69331 629.118C8.90195 629.953 10.432 634.612 12.1706 639.55C13.9093 644.488 15.4393 648.8 15.5784 649.217C17.2475 654.711 33.1737 685.521 35.4687 687.816C35.6774 688.024 37.0683 690.041 38.5983 692.336C40.1284 694.631 41.5888 696.578 41.9366 696.718C42.2148 696.857 42.4234 697.274 42.4234 697.691C42.4234 698.039 42.8407 698.804 43.258 699.291C43.7448 699.847 44.5098 700.682 44.8575 701.168C50.6994 708.68 55.7068 714.313 63.2874 721.893C71.3548 729.891 77.0576 735.107 77.8922 735.107C78.1703 735.107 78.5876 735.385 78.7267 735.664C78.7963 735.942 80.3263 737.263 82.0649 738.585C83.8036 739.906 85.3336 741.158 85.5423 741.366C87.2809 743.314 110.44 758.058 111.692 758.058C111.97 758.058 112.735 758.475 113.291 758.962C114.265 759.796 124.697 764.734 132.834 768.35C137.007 770.159 152.307 775.583 153.698 775.792C153.907 775.792 154.463 776.07 154.95 776.348C155.367 776.696 155.784 776.766 155.784 776.487C155.784 776.279 156.897 776.557 158.218 777.113C159.54 777.67 160.653 778.017 160.653 777.878C160.653 777.739 162.113 778.017 163.921 778.574C166.842 779.408 168.998 779.895 176.648 781.356C181.725 782.399 188.819 783.373 197.86 784.277C203.911 784.903 231.66 784.903 238.197 784.277C246.473 783.442 250.785 782.816 256.627 781.703C258.713 781.286 261.495 780.799 262.816 780.591C264.138 780.382 265.946 779.895 266.85 779.547C267.754 779.2 268.45 779.061 268.45 779.269C268.45 779.408 269.702 779.13 271.232 778.574C272.762 778.017 274.083 777.6 274.222 777.6C274.292 777.67 275.752 777.322 277.491 776.835C279.229 776.348 280.968 775.931 281.316 775.792C281.733 775.722 282.498 775.514 283.055 775.305C312.334 765.151 333.754 753.468 355.174 735.872C362.477 729.891 374.856 717.929 379.724 712.087C381.046 710.488 382.506 708.819 382.923 708.401C384.523 706.732 393.008 695.327 396.276 690.458C399.267 686.007 410.325 667.23 410.325 666.604C410.325 666.465 411.716 663.405 413.454 659.719C415.193 656.033 416.584 652.834 416.584 652.695C416.584 652.486 417.21 651.025 417.905 649.356C419.714 645.392 422.634 637.186 423.26 634.612C423.539 633.43 424.025 632.109 424.443 631.622C424.79 631.205 424.93 630.787 424.651 630.787C424.443 630.787 424.651 629.675 425.208 628.353C425.764 627.032 426.112 625.919 425.903 625.919C425.695 625.919 425.903 625.293 426.32 624.459C426.807 623.694 427.225 622.164 427.364 621.19C427.503 620.147 428.129 617.087 428.755 614.444C429.381 611.732 430.006 608.811 430.146 607.837C430.354 606.863 430.563 605.403 430.771 604.638C432.093 598.309 434.179 577.028 434.04 570.769C433.971 568.056 433.971 567.639 434.04 562.632C434.11 558.459 433.345 544.132 432.927 541.072C432.719 539.751 432.441 536.969 432.162 534.883C431.954 532.796 431.606 530.432 431.467 529.667C431.328 528.832 430.98 526.815 430.771 525.077C430.563 523.338 430.215 521.738 430.076 521.53C429.937 521.252 429.659 519.861 429.381 518.4C429.172 516.87 428.198 512.697 427.225 509.081C426.32 505.464 425.416 501.918 425.277 501.153C423.747 494.407 416.167 475.42 410.186 463.528C404.483 452.122 393.773 434.736 391.269 432.649C390.643 432.093 390.156 431.328 390.156 430.841C390.156 430.285 389.948 429.798 389.669 429.659C389.322 429.52 387.861 427.85 386.331 425.973C383.202 422.009 382.576 421.244 377.499 415.61C372.283 409.768 365.676 403.301 361.086 399.406C358.93 397.528 356.635 395.581 356.078 394.955C355.522 394.399 353.783 393.008 352.253 391.825C350.723 390.713 349.124 389.461 348.637 389.113C348.15 388.696 347.385 388.07 346.898 387.653C344.464 385.705 329.233 376.038 323.531 372.839C317.271 369.292 305.866 363.729 304.823 363.659C304.475 363.589 303.501 363.172 302.528 362.616C298.146 360.182 281.316 354.409 270.884 351.767C261.565 349.402 254.958 348.15 245.847 347.037C242.787 346.62 239.379 346.133 238.197 345.925C235.902 345.507 199.877 344.881 199.529 345.299ZM233.885 393.912C236.876 394.19 240.005 394.538 240.84 394.746C242.578 395.094 245.569 395.581 248.629 396.137C266.642 399.128 289.87 408.447 305.309 418.879C309.482 421.661 317.967 427.85 318.941 428.755C319.358 429.172 321.097 430.632 322.696 431.954C326.382 434.944 340.291 448.714 343.699 452.818C345.09 454.487 346.898 456.643 347.663 457.547C348.498 458.451 349.124 459.425 349.124 459.633C349.124 459.842 349.819 460.885 350.723 461.928C351.558 462.902 352.74 464.432 353.297 465.267C353.853 466.101 354.896 467.562 355.592 468.396C356.218 469.3 356.774 470.343 356.774 470.761C356.774 471.178 357.122 471.526 357.469 471.526C357.887 471.526 358.165 472.013 358.165 472.569C358.165 473.125 358.373 473.612 358.721 473.612C358.999 473.612 359.556 474.308 359.903 475.212C361.434 478.411 364.076 483.001 364.633 483.21C364.911 483.349 365.119 483.766 365.119 484.114C365.119 484.392 366.371 487.243 367.901 490.373C369.431 493.502 370.683 496.354 370.683 496.632C370.683 496.98 371.448 498.858 372.352 500.874C373.256 502.891 374.369 505.673 374.717 506.994C375.134 508.316 376.386 512.697 377.568 516.661C378.751 520.626 379.655 524.033 379.585 524.312C379.585 524.52 379.655 524.868 379.724 525.077C379.863 525.563 380.35 527.858 380.767 529.945C380.907 530.918 381.185 532.309 381.324 533.074C381.532 533.839 381.88 535.995 382.089 537.804C382.367 539.681 382.784 541.907 382.923 542.672C383.132 543.854 384.036 562.632 384.036 566.457C384.036 569.447 383.132 585.026 382.854 586.973C382.715 588.294 382.367 591.146 382.089 593.232C381.88 595.319 381.602 597.196 381.463 597.405C381.324 597.614 381.046 599.491 380.767 601.578C380.489 603.664 380.142 605.681 379.863 606.029C379.655 606.377 379.446 607.35 379.377 608.185C379.237 608.95 378.333 612.705 377.36 616.461C373.674 629.883 369.014 641.08 362.199 652.834C360.321 655.963 358.86 658.815 358.86 659.232C358.86 659.58 358.582 659.997 358.304 660.136C357.956 660.206 356.357 662.362 354.687 664.865C353.018 667.369 351.28 669.733 350.932 670.22C350.515 670.638 349.541 671.82 348.776 672.793C344.673 678.079 341.752 681.278 334.102 688.859C329.512 693.449 324.922 697.83 324.017 698.665C320.749 701.447 309.83 709.584 308.3 710.279C307.396 710.696 306.7 711.253 306.7 711.6C306.7 711.879 306.353 712.157 306.005 712.157C305.588 712.157 304.127 712.922 302.667 713.826C287.297 723.493 263.512 732.256 245.499 734.829C244.178 734.968 242.3 735.316 241.327 735.455C232.564 737.194 203.424 737.194 193.339 735.525C187.08 734.481 181.099 733.438 180.821 733.369C180.612 733.299 179.569 733.021 178.387 732.743C171.224 731.074 158.01 726.831 156.758 725.927C156.271 725.579 155.297 725.232 154.532 725.023C153.767 724.884 150.36 723.423 147.021 721.685C128.035 712.296 115.934 703.603 100.773 688.511C88.5328 676.271 81.5781 667.508 73.4412 653.738C65.3042 640.107 57.3759 620.912 55.22 609.923C55.0113 608.95 54.5245 606.933 54.1072 605.403C53.7595 603.873 53.3422 601.995 53.2031 601.23C53.1336 600.465 52.8554 599.074 52.6467 598.1C50.9081 590.868 49.239 563.953 50.3517 562.771C50.5603 562.632 50.4213 561.728 50.0735 560.824C49.7258 559.919 49.6562 559.154 49.9344 559.154C50.2126 559.154 50.4213 557.485 50.4908 555.468C50.4908 551.365 51.3254 541.629 51.7426 538.986C51.9513 538.012 52.2295 535.995 52.4381 534.465C53.6899 524.312 58.5582 506.925 63.2874 495.519C68.0165 484.183 79.144 464.571 83.1777 460.607C83.7341 460.051 84.1513 459.355 84.1513 459.146C84.1513 458.868 84.8468 457.895 85.7509 456.921C86.5855 455.947 88.5328 453.583 90.0628 451.705C93.6792 447.115 107.936 432.927 112.318 429.45C114.195 427.92 116.143 426.32 116.56 425.973C116.977 425.555 118.09 424.79 118.925 424.234C119.759 423.678 121.637 422.287 123.028 421.244C124.419 420.131 127.757 417.975 130.4 416.375C133.112 414.776 135.407 413.315 135.616 413.107C135.824 412.898 137.354 412.133 139.093 411.368C140.832 410.603 142.362 409.838 142.57 409.56C143.266 408.725 160.931 401.562 163.921 400.936C164.617 400.797 167.051 400.101 169.346 399.336C173.171 398.085 177.622 397.041 183.255 396.068C184.438 395.859 186.315 395.581 187.428 395.303C190.14 394.816 193.131 394.468 199.946 393.912C203.006 393.634 205.58 393.425 205.649 393.355C206.066 393.008 229.017 393.494 233.885 393.912Z"
        />
        <path class="main-letters" fill="#E49219"
              d="M528.763 355.244C525.842 355.383 525.077 355.731 525.007 356.635C524.868 358.513 524.59 361.086 524.103 364.702C523.825 366.51 523.477 369.362 523.338 370.961C523.129 372.491 522.851 374.439 522.712 375.204C522.573 375.969 522.225 378.125 521.947 380.072C521.669 381.95 521.321 384.453 521.182 385.636C521.043 386.748 520.765 388.974 520.556 390.504C519.722 396.694 519.374 399.615 519.096 400.936C518.957 401.701 518.609 403.718 518.4 405.456C518.191 407.195 517.913 409.421 517.705 410.394C517.357 412.759 516.661 417.836 516.383 420.061C515.896 424.721 515.201 429.52 514.992 429.798C514.853 430.006 514.575 432.162 514.297 434.666C514.088 437.17 513.741 439.673 513.532 440.299C513.393 440.856 513.115 442.873 512.906 444.82C512.767 446.698 512.419 448.993 512.21 449.966C512.002 450.94 511.654 453.374 511.445 455.46C511.237 457.547 510.889 459.911 510.75 460.676C510.611 461.511 510.263 463.528 510.055 465.266C509.568 468.952 509.15 471.943 508.733 474.308C508.594 475.281 508.246 477.576 508.038 479.524C507.829 481.401 507.481 484.114 507.342 485.435C506.786 488.773 506.369 492.181 505.882 495.867C505.743 497.606 505.395 499.483 505.256 500.04C505.117 500.596 504.769 502.822 504.56 504.908C504.352 506.994 504.004 509.568 503.795 510.611C503.587 511.654 503.309 513.323 503.169 514.436C503.03 515.479 502.752 517.635 502.474 519.165C502.057 522.364 501.57 525.911 501.083 530.014C500.874 531.614 500.596 533.7 500.457 534.744C500.248 535.717 499.901 537.943 499.692 539.681C499.483 541.42 499.136 543.576 498.997 544.55C498.858 545.523 498.579 547.818 498.301 549.766C498.093 551.643 497.606 555.26 497.188 557.763C496.771 560.267 496.354 563.397 496.215 564.718C496.076 566.039 495.797 568.056 495.589 569.239C495.38 570.351 495.102 572.716 494.824 574.455C494.407 577.723 493.781 582.383 493.433 584.191C493.363 584.748 493.016 586.973 492.737 589.059C492.529 591.146 492.181 593.649 492.042 594.623C491.833 595.597 491.555 597.753 491.347 599.491C490.929 603.456 490.234 608.463 489.886 610.271C489.747 611.036 489.399 613.053 489.191 614.792C488.982 616.53 488.704 618.686 488.565 619.66C488.426 620.634 488.147 622.789 487.869 624.528C487.174 629.814 486.826 632.109 486.478 634.404C486.27 635.656 485.991 638.09 485.783 639.828C485.644 641.567 485.435 642.958 485.435 642.958C485.296 642.958 484.809 645.67 484.461 648.869C484.253 650.608 483.905 652.764 483.766 653.738C483.557 654.711 483.279 657.006 483.001 658.954C482.792 660.831 482.305 664.309 481.958 666.604C481.61 668.899 481.123 672.307 480.915 674.254C480.636 676.132 480.358 678.496 480.219 679.47C480.08 680.444 479.732 682.739 479.454 684.686C479.245 686.564 478.898 688.789 478.759 689.554C478.619 690.319 478.341 692.336 478.133 694.075C477.437 700.056 476.464 706.871 475.977 709.723C475.838 710.488 475.49 712.852 475.281 714.939C475.073 717.025 474.794 718.903 474.655 719.111C474.516 719.32 474.238 721.476 473.96 723.98C473.682 726.483 473.334 729.126 473.125 729.891C472.986 730.656 472.708 732.395 472.638 733.786C472.499 735.177 472.221 737.263 471.943 738.306C471.734 739.419 471.387 742.062 471.178 744.148C470.969 746.235 470.622 748.738 470.413 749.712C470.135 751.451 469.787 753.885 469.092 759.101C468.883 760.631 468.535 763.134 468.327 764.664C468.048 766.195 467.77 768.35 467.631 769.533C467.492 770.645 467.283 772.315 467.075 773.149C466.866 774.123 467.075 774.749 467.562 774.749C478.202 775.027 512.975 774.61 513.323 774.262C513.601 773.914 514.019 771.828 514.227 769.533C514.506 767.238 514.853 764.595 515.062 763.621C515.201 762.648 515.479 760.77 515.618 759.448C515.827 757.293 517.009 748.808 517.844 743.105C517.983 741.923 518.261 739.767 518.47 738.237C518.887 734.759 519.582 729.752 519.93 727.457C520.139 725.997 520.417 723.493 521.252 716.677C521.321 715.912 521.46 715.286 521.599 715.286C521.669 715.286 521.808 714.035 521.947 712.505C522.017 710.975 522.364 708.401 522.573 706.732C522.782 705.133 523.199 702.49 523.407 700.821C523.616 699.221 523.894 697.274 523.964 696.509C524.103 695.744 524.381 693.379 524.659 691.293C524.938 689.206 525.285 686.703 525.424 685.729C525.911 682.252 526.676 676.271 526.815 674.602C526.954 673.628 527.372 670.498 527.789 667.647C528.763 660.971 529.18 658.189 529.597 654.781C529.736 653.251 530.084 650.886 530.293 649.565C530.432 648.244 530.779 645.74 530.988 644.001C531.823 637.812 531.962 636.629 532.727 631.135C533.144 628.075 533.631 624.459 533.839 623.137C534.048 621.816 534.326 619.312 534.535 617.573C534.744 615.835 535.022 613.679 535.161 612.705C535.509 610.758 536.413 603.108 536.413 601.717C536.413 601.3 536.621 600.882 536.83 600.882C537.039 600.882 537.247 599.909 537.178 598.726C537.178 597.475 537.317 595.249 537.665 593.649C538.221 590.381 538.916 585.234 539.403 580.714C539.612 578.975 539.89 576.819 540.029 575.846C540.238 574.872 540.516 572.368 540.725 570.282C540.933 568.195 541.281 565.97 541.42 565.414C541.559 564.857 541.907 562.632 542.116 560.545C542.324 558.459 542.811 554.842 543.159 552.547C543.715 548.861 544.202 545.245 544.897 539.681C545.036 538.708 545.315 536.83 545.523 535.509C545.732 534.187 546.358 529.18 546.984 524.381C547.61 519.582 548.236 514.923 548.375 513.949C548.514 512.975 548.862 510.472 549.07 508.385C549.279 506.299 549.696 503.587 549.835 502.474C550.252 500.318 550.392 499.136 551.226 492.042C551.435 489.747 551.782 487.73 551.852 487.66C551.991 487.521 554.634 492.668 557.763 499.136C560.893 505.534 565.553 515.062 568.056 520.208C570.56 525.355 572.577 529.806 572.507 530.084C572.438 530.293 572.855 530.918 573.411 531.336C573.968 531.823 574.455 532.449 574.455 532.796C574.455 533.144 578.419 541.42 583.218 551.296C597.753 580.992 599.074 583.843 598.935 584.33C598.866 584.678 599.144 584.887 599.491 584.887C599.909 584.887 600.187 585.234 600.187 585.582C600.187 585.999 603.525 593.093 607.559 601.439C611.662 609.715 617.643 622.024 620.842 628.701C624.111 635.377 629.814 647.131 633.569 654.781C637.325 662.431 643.028 674.184 646.296 680.861C654.016 696.787 665.561 720.433 673.419 736.498C676.897 743.592 679.748 749.503 679.818 749.712C679.818 749.921 682.6 755.554 685.868 762.369L691.919 774.61L696.648 774.888C703.881 775.236 706.524 774.679 707.706 772.662C708.262 771.689 712.157 763.691 716.399 754.928C723.423 740.393 726.692 733.786 741.227 703.811C743.731 698.665 745.817 694.283 745.887 694.075C745.957 693.866 748.46 688.581 751.59 682.252C764.456 655.894 769.881 644.558 769.881 643.932C769.881 643.584 770.228 643.306 770.576 643.306C770.993 643.306 771.271 642.958 771.271 642.541C771.271 641.845 774.123 635.864 786.085 611.314C789.145 604.986 791.718 599.7 791.788 599.491C792.066 598.379 794.639 593.51 795.126 593.163C795.474 592.954 795.682 592.606 795.543 592.467C795.474 592.328 797.004 588.851 798.951 584.817C800.968 580.714 802.567 577.028 802.567 576.611C802.567 576.193 802.915 575.846 803.263 575.846C803.68 575.846 803.958 575.567 803.958 575.15C803.958 574.802 806.323 569.586 809.174 563.675C812.026 557.694 814.39 552.547 814.39 552.2C814.39 551.922 814.738 551.504 815.155 551.365C815.503 551.226 815.92 550.67 816.059 550.113C816.268 549.001 820.65 539.681 829.273 522.364C832.194 516.453 834.559 511.237 834.559 510.75C834.559 510.263 834.767 509.776 835.115 509.637C835.532 509.429 841.235 498.162 843.669 492.529C844.643 490.234 845.408 489.677 845.478 491.138C845.547 491.625 845.756 493.294 845.964 494.824C846.243 496.354 846.59 499.205 846.729 501.153C846.938 503.1 847.286 505.464 847.494 506.369C847.703 507.273 847.981 509.15 848.12 510.472C848.259 511.793 848.538 514.019 848.746 515.41C848.955 516.801 849.233 519.374 849.442 521.043C849.79 523.964 850.415 528.415 850.972 532.031C851.25 533.839 853.823 553.104 854.449 558.111C854.588 559.641 854.936 561.658 855.075 562.632C855.562 565.483 856.257 570.49 856.466 572.716C856.536 573.829 856.814 576.193 857.092 577.932C857.926 583.704 858.205 585.93 858.552 589.059C858.761 590.798 859.039 592.954 859.248 593.928C859.456 594.901 859.804 597.405 859.943 599.491C860.152 601.578 860.5 603.873 860.708 604.568C860.917 605.264 861.195 607.281 861.334 609.089C861.543 610.897 861.752 613.262 861.96 614.444C862.099 615.557 862.447 618.06 862.725 620.008C863.003 621.885 863.351 624.25 863.49 625.224C863.629 626.197 863.907 628.631 864.186 630.648C864.394 632.665 864.672 635.03 864.881 635.864C865.02 636.699 865.368 638.924 865.577 640.872C865.785 642.749 866.203 646.088 866.55 648.174C866.898 650.26 867.385 654.016 867.593 656.45C867.802 658.884 868.08 661.11 868.219 661.318C868.358 661.527 868.706 663.613 868.984 665.908C869.193 668.203 869.61 671.194 869.749 672.515C869.958 673.837 870.236 676.062 870.375 677.384C870.514 678.705 870.793 680.583 871.001 681.556C871.14 682.53 871.558 685.173 871.766 687.468C872.392 692.197 872.531 693.24 873.088 697.343C873.296 699.013 873.714 701.655 873.922 703.255C874.131 704.924 874.409 707.01 874.548 707.984C874.687 708.958 875.035 711.392 875.244 713.478C875.522 715.565 875.869 717.86 876.009 718.694C876.148 719.529 876.426 721.546 876.634 723.284C876.843 725.023 877.121 727.179 877.33 728.153C877.469 729.126 877.747 731.63 878.025 733.716C878.304 735.803 878.582 738.306 878.721 739.28C878.93 740.254 879.208 742.549 879.416 744.496C879.625 746.374 879.973 749.086 880.181 750.407C880.39 751.729 880.668 753.746 880.807 754.928C881.085 757.362 881.781 762.648 882.129 764.664C882.268 765.429 882.615 768.003 882.894 770.367L883.38 774.749H889.918C893.534 774.818 900.35 774.818 905.149 774.818C909.947 774.818 917.806 774.818 922.605 774.749H931.437L931.02 772.106C930.255 767.585 929.559 761.952 929.559 760.283C929.49 759.448 929.212 758.753 928.934 758.753C928.586 758.753 928.516 758.475 928.725 758.197C928.934 757.849 928.655 754.789 928.099 751.381C927.195 745.47 926.847 742.896 925.943 736.289C925.734 734.69 925.387 732.256 925.178 730.934C924.969 729.613 924.761 727.666 924.691 726.553C924.691 725.51 924.483 724.675 924.274 724.675C924.065 724.675 923.857 723.632 923.787 722.38C923.648 719.876 923.161 715.634 922.674 712.505C922.257 710.14 921.701 706.315 921.144 701.725C920.866 699.986 920.588 697.83 920.449 696.857C920.31 695.883 920.032 693.727 919.753 691.988C919.545 690.25 919.197 688.094 919.058 687.12C918.919 686.146 918.571 683.99 918.362 682.252C918.084 680.513 917.806 678.357 917.667 677.384C917.389 675.297 916.832 671.263 916.206 666.952C915.998 665.213 915.72 663.196 915.581 662.431C915.511 661.666 915.163 659.441 914.885 657.563C914.676 655.615 914.259 653.32 914.12 652.347C913.911 651.373 913.633 649.356 913.494 647.826C913.286 646.296 913.007 644.001 912.799 642.749C912.173 638.924 911.825 636.142 911.408 632.874C911.199 631.135 910.851 628.979 910.712 628.005C910.504 627.032 910.225 625.154 910.086 623.833C909.808 621.259 908.974 615.209 908.626 613.401C908.417 612.218 907.513 605.611 907.165 602.969C906.818 600.117 906.261 595.805 905.844 593.58C905.705 592.398 905.357 589.894 905.149 588.016C904.94 586.069 904.592 583.565 904.314 582.452C904.036 581.27 903.827 579.879 903.758 579.323C903.688 578.21 902.714 571.116 902.228 568.195C901.949 566.248 901.602 563.814 900.976 558.807C900.767 556.859 900.419 554.564 900.28 553.591C900.072 552.617 899.724 550.461 899.515 548.722C899.307 546.984 899.029 544.758 898.889 543.645C898.124 539.125 897.916 537.734 897.498 534.813C897.081 531.197 896.455 526.885 896.108 524.381C895.899 523.407 895.621 521.251 895.412 519.582C895.203 517.983 894.925 515.757 894.786 514.714C894.508 513.045 893.882 508.942 893.326 504.908C892.839 501.5 891.587 492.668 891.239 489.608C890.683 485.226 890.266 482.514 889.918 480.914C889.779 480.149 889.431 477.646 889.222 475.351C888.944 473.056 888.596 470.343 888.388 469.37C888.249 468.396 887.971 466.518 887.831 465.197C887.623 463.876 887.275 461.581 886.997 460.05C886.788 458.52 886.441 456.156 886.371 454.835C886.232 453.513 886.093 452.4 886.023 452.4C885.884 452.4 885.815 451.983 885.05 445.793C884.702 443.707 884.424 441.342 884.285 440.577C884.215 439.812 883.867 437.448 883.659 435.361C883.381 433.275 883.033 431.05 882.894 430.493C882.755 429.937 882.407 427.85 882.198 425.973C881.99 424.025 881.711 421.73 881.503 420.757C881.016 417.418 879.695 408.586 879.416 406.152C878.93 401.979 876.913 387.792 876.634 385.983C876.426 385.01 876.148 382.645 875.939 380.767C875.73 378.82 875.383 376.803 875.244 376.247C875.104 375.691 874.757 373.465 874.548 371.379C874.339 369.292 873.922 366.58 873.714 365.467C873.296 362.963 872.949 360.46 872.879 358.373C872.74 355.592 871.349 355.035 865.577 355.244L860.222 355.522L855.631 364.98C853.128 370.196 849.164 378.403 846.869 383.202C844.574 388 843 391.5 842.765 392.382C842.5 393 841.89 394.22 841.5 395C841 396 840.5 397 840 398C839.601 398.799 836.228 405.456 826.839 424.651C824.614 429.311 822.736 433.345 822.736 433.623C822.736 433.971 822.249 434.736 821.623 435.431C821.067 436.057 820.441 437.031 820.371 437.587C820.163 438.422 818.285 442.455 805.002 469.787C794.291 491.833 792.553 495.519 792.692 496.006C792.761 496.354 792.483 496.562 792.135 496.562C791.718 496.562 791.44 496.841 791.44 497.258C791.44 497.606 788.449 504.073 784.763 511.654C772.593 536.621 769.185 543.785 769.185 544.132C769.185 544.341 768.281 546.08 767.099 548.027C765.986 549.905 765.151 551.504 765.36 551.504C765.499 551.504 763.621 555.538 761.187 560.406C758.753 565.274 755.067 572.855 752.981 577.236C750.894 581.618 746.722 590.242 743.731 596.362C740.741 602.482 738.306 607.628 738.237 607.837C738.237 608.046 735.803 613.053 732.882 618.964C727.805 629.257 724.119 636.907 712.157 661.736C699.847 687.329 699.499 687.955 698.526 686.633C698.039 685.938 697.552 685.173 697.552 684.895C697.552 684.477 686.911 662.501 675.784 639.828C673.072 634.265 670.777 629.605 670.707 629.396C670.707 629.188 667.299 622.164 663.196 613.748C651.79 590.52 640.872 568.126 622.79 530.988C619.243 523.686 614.374 513.671 611.94 508.733C609.506 503.726 607.489 499.553 607.42 499.344C607.42 499.136 603.038 490.234 597.753 479.524C592.467 468.813 588.086 459.911 588.016 459.703C587.808 458.52 585.86 454.835 585.443 454.835C585.095 454.835 584.887 454.417 584.887 453.93C584.887 453.513 583.357 449.966 581.479 446.141C579.601 442.316 575.289 433.414 571.812 426.32C568.404 419.227 561.936 405.943 557.416 396.763C552.965 387.583 546.636 374.578 543.298 367.762C536.621 353.922 537.525 354.757 528.763 355.244Z"
        />
        <circle fill="none" stroke="#E49219" cx="1004" cy="400" r="52.5" stroke-width="8"/>
        <path fill="#E49219"
              d="M984.078 370.125H1005.29C1009.64 370.125 1013.38 370.776 1016.5 372.078C1019.65 373.38 1022.07 375.307 1023.77 377.859C1025.46 380.411 1026.3 383.549 1026.3 387.273C1026.3 390.32 1025.78 392.938 1024.74 395.125C1023.73 397.286 1022.28 399.096 1020.41 400.555C1018.56 401.987 1016.38 403.133 1013.88 403.992L1010.17 405.945H991.734L991.656 396.805H1005.37C1007.42 396.805 1009.13 396.44 1010.48 395.711C1011.84 394.982 1012.85 393.966 1013.53 392.664C1014.23 391.362 1014.59 389.852 1014.59 388.133C1014.59 386.31 1014.25 384.734 1013.57 383.406C1012.89 382.078 1011.86 381.062 1010.48 380.359C1009.1 379.656 1007.37 379.305 1005.29 379.305H995.797V427H984.078V370.125ZM1015.88 427L1002.91 401.648L1015.29 401.57L1028.41 426.453V427H1015.88Z"
        />
    </g>
</svg>
