<?xml version="1.0" encoding="UTF-8"?>
<svg preserveAspectRatio="xMidYMid meet" data-bbox="0.2 -0.2 160.5 60" viewBox="0 0 60 60" xmlns="http://www.w3.org/2000/svg" data-type="ugc" role="presentation" aria-hidden="true" aria-label="">
    <g>
        <linearGradient gradientTransform="matrix(60 0 0 -60 -32509 174431)" y2="2906.196" x2="541.812" y1="2907.455" x1="543.119" gradientUnits="userSpaceOnUse" id="e46eba69-e36a-4d13-b075-105b4ffdae4b_comp-ku7ec0mq">
            <stop offset="0" stop-color="#ff9f49"></stop>
            <stop offset="1" stop-color="#ff5e5e"></stop>
            <stop offset="1" stop-color="#ff5e5e"></stop>
        </linearGradient>
        <path d="M12.2-.2h36c6.6 0 12 5.4 12 12v36c0 6.6-5.4 12-12 12h-36c-6.6 0-12-5.4-12-12v-36c0-6.6 5.4-12 12-12z" fill-rule="evenodd" clip-rule="evenodd" fill="url(#e46eba69-e36a-4d13-b075-105b4ffdae4b_comp-ku7ec0mq)"></path>
        <path d="M47.4 17.7V33c0 1.3-.7 2.5-1.8 3.1l-13.4 7.7c-.5.3-1.2.5-1.8.5s-1.3-.2-1.8-.5l-13.4-7.7c-1-.6-1.6-1.6-1.8-2.7V18c0-1.1.9-2.1 2.1-2.1.3 0 .6.1.9.2l.2.1 5.9 3.3c.7.5 1.1 1.2 1.1 2.1 0 .2 0 .5-.1.7v.1c0 .1-.1.2-.1.3-.3.8-.5 1.7-.5 2.6 0 1.2.3 2.5.9 3.5 1.3 2.5 3.9 4 6.6 4 4.1 0 7.5-3.4 7.5-7.5 0-.9-.2-1.8-.5-2.6 0-.1-.1-.2-.1-.2v-.3c0-.2-.1-.3-.1-.5 0-.8.4-1.6 1.1-2l.2-.1 5.8-3.3c.3-.1.6-.2.9-.2 1.2-.2 2.1.5 2.2 1.6z" fill-rule="evenodd" clip-rule="evenodd" fill="#ffffff"></path>
    </g>
</svg>